<svg width="71" height="59" viewBox="0 0 71 59" fill="none" xmlns="http://www.w3.org/2000/svg">
<rect width="71" height="39" rx="15" fill="#5264BE"/>
<circle cx="39" cy="52.1602" r="6" fill="#5264BE"/>
<path d="M15.1852 17.7227C15.1852 17.6992 15.1774 17.6367 15.1774 17.5898C15.1774 16.793 15.7477 16.0898 16.7087 16.0898C17.5759 16.0898 18.2243 16.6836 18.2243 17.5117C18.2243 18.3711 17.5993 19.0352 17.0368 19.6367L13.1931 23.7617V25.1602H20.6462V23.3398H16.2556V23.2695L18.5759 20.6836C19.4821 19.6914 20.4587 18.7852 20.4587 17.293C20.4587 15.5898 18.9977 14.293 16.7556 14.293C14.2243 14.293 13.0446 15.9805 13.0446 17.6055V17.7227H15.1852ZM22.202 22.2539C22.2645 23.9414 23.6317 25.3633 26.0926 25.3633C28.5067 25.3633 30.2567 23.8789 30.2567 21.5352C30.2567 19.3477 28.6004 18.0117 26.7411 18.0117C25.4832 18.0117 24.702 18.5742 24.4598 18.9258H24.3739L24.6317 16.293H29.4754V14.4883H22.8348L22.3426 20.7695H24.3348C24.5614 20.2852 25.1395 19.6992 26.1551 19.6992C27.2254 19.6992 28.0457 20.4727 28.0457 21.6367C28.0457 22.8633 27.1004 23.5898 26.1473 23.5898C25.1317 23.5898 24.4051 23.0742 24.2801 22.2539H22.202ZM32.8828 17.0273C32.8828 16.1133 33.2344 15.5742 33.8203 15.5742C34.3828 15.5742 34.7422 16.0898 34.7422 17.043V17.1289C34.7422 18.0742 34.3672 18.5977 33.8125 18.5977C33.25 18.5977 32.8828 18.0664 32.8828 17.1133V17.0273ZM31.5 17.1914C31.5 18.6758 32.3516 19.8086 33.7969 19.8086C35.3047 19.8086 36.1328 18.5977 36.1328 17.207V16.9648C36.1328 15.4805 35.2656 14.3711 33.8281 14.3711C32.3828 14.3711 31.5 15.4883 31.5 16.9492V17.1914ZM39.1484 22.5039C39.1484 21.582 39.5 21.0508 40.0781 21.0508C40.6406 21.0508 41 21.5664 41 22.5117V22.5977C41 23.5508 40.625 24.0742 40.0781 24.0742C39.5156 24.0742 39.1484 23.5352 39.1484 22.5898V22.5039ZM37.7656 22.668C37.7656 24.1445 38.6094 25.2852 40.0547 25.2852C41.5625 25.2852 42.3906 24.0742 42.3906 22.6758V22.4336C42.3906 20.9492 41.5312 19.8398 40.0859 19.8398C38.6484 19.8398 37.7656 20.9648 37.7656 22.4258V22.668ZM33.6719 25.168L37.6016 19.9883L41.8906 14.4961H40.2578L36.4062 19.5664L32.0391 25.168H33.6719Z" fill="white"/>
<path fill-rule="evenodd" clip-rule="evenodd" d="M57.7509 16.9259L48.955 25.7218L47.8943 24.6611L56.6903 15.8652L50.0157 15.8652L50.0157 14.3652H59.2509V23.6005L57.7509 23.6005V16.9259Z" fill="white"/>
</svg>
