<svg width="17" height="26" viewBox="0 0 17 26" fill="none" xmlns="http://www.w3.org/2000/svg">
<path fill-rule="evenodd" clip-rule="evenodd" d="M8.5 0C7.7176 0 7.08333 0.623603 7.08333 1.39286V3.72237C6.64858 3.79936 6.2219 3.91184 5.80913 4.05893C4.95452 4.36347 4.17427 4.81113 3.51428 5.37891C2.85417 5.9468 2.32665 6.62437 1.96532 7.37483C1.74179 7.83907 1.58491 8.32495 1.49772 8.82142H0.944444C0.422842 8.82142 0 9.23716 0 9.74999V10.6786C0 11.1914 0.422843 11.6071 0.944445 11.6071H1.41665C1.41666 11.6167 1.41697 11.6263 1.41758 11.636L2.24394 24.6936C2.29041 25.4279 2.90963 26 3.65787 26H11.3333C11.5941 26 11.8056 25.7921 11.8056 25.5357C11.8056 25.2793 11.5941 25.0714 11.3333 25.0714H3.65787C3.40846 25.0714 3.20205 24.8807 3.18656 24.636L2.53832 14.3928H12.75C13.0108 14.3928 13.2222 14.185 13.2222 13.9286C13.2222 13.6721 13.0108 13.4643 12.75 13.4643H2.47956L2.36202 11.6071H14.6378L13.6955 25.5048C13.6781 25.7607 13.875 25.9819 14.1353 25.999C14.3955 26.016 14.6205 25.8224 14.6378 25.5666L15.5823 11.638C15.583 11.6277 15.5833 11.6174 15.5833 11.6071H16.0556C16.5772 11.6071 17 11.1914 17 10.6786V9.74999C17 9.23716 16.5772 8.82142 16.0556 8.82142H15.5023C15.4151 8.32495 15.2582 7.83907 15.0347 7.37483C14.6734 6.62437 14.1458 5.9468 13.4857 5.37892C12.8257 4.81113 12.0455 4.36347 11.1909 4.05893C10.7781 3.91184 10.3514 3.79936 9.91667 3.72237V1.39286C9.91667 0.623603 9.2824 0 8.5 0ZM8.97222 3.61188V1.39286C8.97222 1.13644 8.7608 0.928571 8.5 0.928571C8.2392 0.928571 8.02778 1.13644 8.02778 1.39286V3.61188C8.18478 3.60278 8.34228 3.59821 8.5 3.59821C8.65772 3.59821 8.81522 3.60278 8.97222 3.61188ZM8.02778 4.54228C8.18462 4.53197 8.34214 4.52678 8.5 4.52678C8.65786 4.52678 8.81538 4.53197 8.97222 4.54228V8.82142H8.02778V4.54228ZM7.08333 4.66797C6.75859 4.73359 6.44004 4.82178 6.13095 4.93193C5.38136 5.19904 4.704 5.58926 4.1362 6.07773C3.56851 6.56611 3.12209 7.14251 2.81894 7.77213C2.65554 8.11151 2.53524 8.46324 2.45906 8.82142L7.08333 8.82142V4.66797ZM9.91667 8.82142V4.66797C10.2414 4.73359 10.56 4.82179 10.8691 4.93193C11.6186 5.19904 12.296 5.58926 12.8638 6.07774C13.4315 6.56611 13.8779 7.14252 14.1811 7.77213C14.3445 8.11151 14.4648 8.46325 14.5409 8.82142L9.91667 8.82142ZM0.944444 9.74999H16.0556V10.6786H0.944444V9.74999Z" fill="white"/>
<path fill-rule="evenodd" clip-rule="evenodd" d="M9.91667 16.7143C9.91667 17.4835 9.2824 18.1071 8.5 18.1071C7.7176 18.1071 7.08333 17.4835 7.08333 16.7143C7.08333 15.945 7.7176 15.3214 8.5 15.3214C9.2824 15.3214 9.91667 15.945 9.91667 16.7143ZM8.97222 16.7143C8.97222 16.9707 8.7608 17.1786 8.5 17.1786C8.2392 17.1786 8.02778 16.9707 8.02778 16.7143C8.02778 16.4579 8.2392 16.25 8.5 16.25C8.7608 16.25 8.97222 16.4579 8.97222 16.7143Z" fill="white"/>
<path fill-rule="evenodd" clip-rule="evenodd" d="M8.19777 20.0909C8.19777 20.8601 7.56351 21.4837 6.7811 21.4837C5.9987 21.4837 5.36444 20.8601 5.36444 20.0909C5.36444 19.3216 5.9987 18.698 6.7811 18.698C7.56351 18.698 8.19777 19.3216 8.19777 20.0909ZM7.25333 20.0909C7.25333 20.3473 7.0419 20.5552 6.7811 20.5552C6.5203 20.5552 6.30888 20.3473 6.30888 20.0909C6.30888 19.8345 6.5203 19.6266 6.7811 19.6266C7.0419 19.6266 7.25333 19.8345 7.25333 20.0909Z" fill="white"/>
<path fill-rule="evenodd" clip-rule="evenodd" d="M6.47889 23.2143C6.47889 23.9835 5.84463 24.6071 5.06222 24.6071C4.27982 24.6071 3.64556 23.9835 3.64556 23.2143C3.64556 22.445 4.27982 21.8214 5.06222 21.8214C5.84463 21.8214 6.47889 22.445 6.47889 23.2143ZM5.53444 23.2143C5.53444 23.4707 5.32302 23.6786 5.06222 23.6786C4.80142 23.6786 4.59 23.4707 4.59 23.2143C4.59 22.9579 4.80142 22.75 5.06222 22.75C5.32302 22.75 5.53444 22.9579 5.53444 23.2143Z" fill="white"/>
<path fill-rule="evenodd" clip-rule="evenodd" d="M9.91324 23.2143C9.91324 23.9835 9.27897 24.6071 8.49657 24.6071C7.71417 24.6071 7.0799 23.9835 7.0799 23.2143C7.0799 22.445 7.71417 21.8214 8.49657 21.8214C9.27897 21.8214 9.91324 22.445 9.91324 23.2143ZM8.96879 23.2143C8.96879 23.4707 8.75737 23.6786 8.49657 23.6786C8.23577 23.6786 8.02435 23.4707 8.02435 23.2143C8.02435 22.9579 8.23577 22.75 8.49657 22.75C8.75737 22.75 8.96879 22.9579 8.96879 23.2143Z" fill="white"/>
<path fill-rule="evenodd" clip-rule="evenodd" d="M11.9309 24.6071C12.7133 24.6071 13.3476 23.9835 13.3476 23.2143C13.3476 22.445 12.7133 21.8214 11.9309 21.8214C11.1485 21.8214 10.5142 22.445 10.5142 23.2143C10.5142 23.9835 11.1485 24.6071 11.9309 24.6071ZM11.9309 23.6786C12.1917 23.6786 12.4031 23.4707 12.4031 23.2143C12.4031 22.9579 12.1917 22.75 11.9309 22.75C11.6701 22.75 11.4587 22.9579 11.4587 23.2143C11.4587 23.4707 11.6701 23.6786 11.9309 23.6786Z" fill="white"/>
<path fill-rule="evenodd" clip-rule="evenodd" d="M10.2155 21.4837C10.9979 21.4837 11.6321 20.8601 11.6321 20.0909C11.6321 19.3216 10.9979 18.698 10.2155 18.698C9.43305 18.698 8.79878 19.3216 8.79878 20.0909C8.79878 20.8601 9.43305 21.4837 10.2155 21.4837ZM10.2155 20.5552C10.4763 20.5552 10.6877 20.3473 10.6877 20.0909C10.6877 19.8345 10.4763 19.6266 10.2155 19.6266C9.95465 19.6266 9.74323 19.8345 9.74323 20.0909C9.74323 20.3473 9.95465 20.5552 10.2155 20.5552Z" fill="white"/>
</svg>
