<svg width="48" height="48" viewBox="0 0 48 48" fill="none" xmlns="http://www.w3.org/2000/svg">
<rect opacity="0.05" width="48" height="48" rx="8" fill="#5364BE"/>
<path fill-rule="evenodd" clip-rule="evenodd" d="M27.55 25C28.3 25 28.96 24.59 29.3 23.97L32.88 17.48C33.25 16.82 32.77 16 32.01 16H17.21L16.27 14H13V16H15L18.6 23.59L17.25 26.03C16.52 27.37 17.48 29 19 29H31V27H19L20.1 25H27.55ZM18.16 18H30.31L27.55 23H20.53L18.16 18ZM19 30C17.9 30 17.01 30.9 17.01 32C17.01 33.1 17.9 34 19 34C20.1 34 21 33.1 21 32C21 30.9 20.1 30 19 30ZM29 30C27.9 30 27.01 30.9 27.01 32C27.01 33.1 27.9 34 29 34C30.1 34 31 33.1 31 32C31 30.9 30.1 30 29 30Z" fill="#8EDFEB"/>
</svg>
