<svg width="91" height="80" viewBox="0 0 91 80" fill="none" xmlns="http://www.w3.org/2000/svg">
<path d="M35.6173 80C33.2566 80.004 30.9586 79.2384 29.0698 77.8188L28.9527 77.7307L4.29141 58.8204C3.14925 57.9426 2.19074 56.848 1.47061 55.5989C0.750479 54.3499 0.282845 52.9709 0.0943793 51.5406C-0.0940862 50.1104 0.000303451 48.657 0.372197 47.2633C0.74409 45.8697 1.38618 44.5631 2.26182 43.4182C3.13745 42.2733 4.2295 41.3125 5.47557 40.5906C6.72164 39.8688 8.09733 39.4 9.52413 39.2111C10.9509 39.0222 12.4009 39.1168 13.7912 39.4896C15.1815 39.8624 16.485 40.506 17.6271 41.3837L33.6007 53.6624L71.3471 4.29995C72.2224 3.15551 73.314 2.19508 74.5596 1.47352C75.8051 0.751959 77.1802 0.283391 78.6065 0.0945562C80.0327 -0.094279 81.482 0.000325264 82.8717 0.372964C84.2615 0.745603 85.5644 1.38898 86.7061 2.26636L86.7093 2.26875L86.475 2.59483L86.7156 2.26875C89.0189 4.04322 90.5259 6.66116 90.9058 9.54811C91.2857 12.4351 90.5075 15.3552 88.7419 17.6676L44.3439 75.7029C43.3168 77.0401 41.9961 78.1221 40.4844 78.8651C38.9727 79.608 37.3106 79.992 35.627 79.987L35.6173 80Z" fill="white"/>
</svg>
