<svg width="48" height="48" viewBox="0 0 48 48" fill="none" xmlns="http://www.w3.org/2000/svg">
<rect opacity="0.05" width="48" height="48" rx="8" fill="#5364BE"/>
<path fill-rule="evenodd" clip-rule="evenodd" d="M33 26.58C33 26.22 32.81 25.89 32.51 25.69L25 21V15.5C25 14.67 24.33 14 23.5 14C22.67 14 22 14.67 22 15.5V21L14.49 25.69C14.19 25.88 14 26.22 14 26.58C14 27.28 14.68 27.79 15.36 27.58L22 25.5V31L20.2 32.35C20.07 32.44 20 32.59 20 32.75V33.34C20 33.67 20.32 33.91 20.64 33.82L23.5 33L26.36 33.82C26.68 33.91 27 33.67 27 33.34V32.75C27 32.59 26.93 32.44 26.8 32.35L25 31V25.5L31.64 27.58C32.32 27.79 33 27.28 33 26.58Z" fill="#8EDFEB"/>
</svg>
