<svg width="48" height="48" viewBox="0 0 48 48" fill="none" xmlns="http://www.w3.org/2000/svg">
<rect opacity="0.05" width="48" height="48" rx="8" fill="#5364BE"/>
<path fill-rule="evenodd" clip-rule="evenodd" d="M32.7705 14.0264L15.7711 18.0256L16 18.9987V20.0001H17.6126L17.473 20.4191C17.133 21.4381 17.133 22.5611 17.473 23.5811L17.6126 24.0001H15V26.0001H16.0622C16.5558 29.9409 19.9276 33.0001 24 33.0001C28.0724 33.0001 31.4442 29.9409 31.9378 26.0001H33V24.0001H25.7205L25.37 22.9481C25.166 22.3371 25.166 21.6631 25.37 21.0521L25.7205 20.0001H33V18.0001H24.6128L33.2285 15.9732L32.7705 14.0264ZM19.7215 24.0001H20.6126L20.473 23.5811C20.133 22.5611 20.133 21.4381 20.473 20.4191L20.6126 20.0001H19.7209L19.371 21.0521C19.167 21.6631 19.167 22.3371 19.371 22.9481L19.7215 24.0001ZM23.473 23.5811L23.6126 24.0001H22.7205L22.37 22.9481C22.166 22.3371 22.166 21.6631 22.37 21.0521L22.7205 20.0001H23.6126L23.473 20.4191C23.133 21.4381 23.133 22.5611 23.473 23.5811ZM24 31.0001C21.0316 31.0001 18.5606 28.8346 18.0833 26.0001H29.9167C29.4394 28.8346 26.9684 31.0001 24 31.0001Z" fill="#8EDFEB"/>
</svg>
