<svg width="48" height="48" viewBox="0 0 48 48" fill="none" xmlns="http://www.w3.org/2000/svg">
<rect opacity="0.05" width="48" height="48" rx="8" fill="#5364BE"/>
<path fill-rule="evenodd" clip-rule="evenodd" d="M30.77 19.23L30.78 19.22L27.06 15.5L26 16.56L28.11 18.67C27.17 19.03 26.5 19.93 26.5 21C26.5 22.38 27.62 23.5 29 23.5C29.36 23.5 29.69 23.42 30 23.29V30.5C30 31.05 29.55 31.5 29 31.5C28.45 31.5 28 31.05 28 30.5V26C28 24.9 27.1 24 26 24H25V17C25 15.9 24.1 15 23 15H17C15.9 15 15 15.9 15 17V33H25V25.5H26.5V30.5C26.5 31.88 27.62 33 29 33C30.38 33 31.5 31.88 31.5 30.5V21C31.5 20.31 31.22 19.68 30.77 19.23ZM23 25.5V31H17V24H23V25.5ZM23 22H17V17H23V22ZM29 22C28.45 22 28 21.55 28 21C28 20.45 28.45 20 29 20C29.55 20 30 20.45 30 21C30 21.55 29.55 22 29 22Z" fill="#8EDFEB"/>
</svg>
