<svg width="48" height="48" viewBox="0 0 48 48" fill="none" xmlns="http://www.w3.org/2000/svg">
<rect opacity="0.05" width="48" height="48" rx="8" fill="#5364BE"/>
<path fill-rule="evenodd" clip-rule="evenodd" d="M19 26C20.66 26 22 24.66 22 23C22 21.34 20.66 20 19 20C17.34 20 16 21.34 16 23C16 24.66 17.34 26 19 26ZM19 22C19.55 22 20 22.45 20 23C20 23.55 19.55 24 19 24C18.45 24 18 23.55 18 23C18 22.45 18.45 22 19 22ZM31 19H23V27H15V17H13V32H15V29H33V32H35V23C35 20.79 33.21 19 31 19ZM33 27H25V21H31C32.1 21 33 21.9 33 23V27Z" fill="#8EDFEB"/>
</svg>
