<svg width="14" height="14" viewBox="0 0 14 14" fill="none" xmlns="http://www.w3.org/2000/svg">
<path d="M9.36238 1.94186C9.1138 1.95363 8.87854 2.05766 8.70257 2.23363L5.60342 5.33278C5.01764 5.91857 5.01764 6.86831 5.60342 7.4541L6.49378 8.34446C7.07957 8.93024 8.02931 8.93024 8.6151 8.34446L11.7188 5.24078C11.8893 5.07027 11.9924 4.84389 12.0092 4.60333L12.1497 2.59248C12.1789 2.17451 11.8368 1.82468 11.4183 1.8445L9.36238 1.94186Z" stroke="white"/>
<path d="M5.83342 1.75008C5.83342 1.42792 5.57225 1.16675 5.25008 1.16675H4.66675C2.73375 1.16675 1.16675 2.73375 1.16675 4.66675V9.33342C1.16675 11.2664 2.73375 12.8334 4.66675 12.8334H9.33342C11.2664 12.8334 12.8334 11.2664 12.8334 9.33342V8.75008C12.8334 8.42792 12.5722 8.16675 12.2501 8.16675C11.9279 8.16675 11.6667 8.42792 11.6667 8.75008V9.33342C11.6667 10.6221 10.6221 11.6667 9.33342 11.6667H4.66675C3.37808 11.6667 2.33341 10.6221 2.33341 9.33342V4.66675C2.33341 3.37808 3.37808 2.33341 4.66675 2.33341H5.25008C5.57225 2.33341 5.83342 2.07225 5.83342 1.75008Z" fill="white"/>
<path d="M10.5001 4.08342C10.5001 4.40558 10.2389 4.66675 9.91675 4.66675C9.59458 4.66675 9.33342 4.40558 9.33342 4.08342C9.33342 3.76125 9.59458 3.50008 9.91675 3.50008C10.2389 3.50008 10.5001 3.76125 10.5001 4.08342Z" fill="white"/>
</svg>
