<svg width="48" height="48" viewBox="0 0 48 48" fill="none" xmlns="http://www.w3.org/2000/svg">
<rect opacity="0.05" width="48" height="48" rx="8" fill="#5364BE"/>
<path d="M32.4849 16.6001C31.3591 15.4762 29.8333 14.845 28.2424 14.845C26.6516 14.845 25.1258 15.4762 23.9999 16.6001C22.8716 15.49 21.3504 14.8708 19.7676 14.8772C18.1847 14.8837 16.6686 15.5153 15.5494 16.6345C14.4301 17.7538 13.7985 19.2699 13.792 20.8527C13.7856 22.4356 14.4049 23.9568 15.5149 25.0851L23.9999 33.5711L32.4849 25.0861C33.6092 23.9602 34.2406 22.4342 34.2406 20.8431C34.2406 19.2521 33.6092 17.726 32.4849 16.6001ZM31.0709 23.6711L23.9999 30.7431L16.9289 23.6721C16.5228 23.275 16.2059 22.796 15.9993 22.2669C15.7927 21.7378 15.7012 21.1708 15.7308 20.6035C15.7604 20.0363 15.9105 19.4819 16.171 18.9771C16.4316 18.4724 16.7966 18.029 17.2419 17.6763C17.6872 17.3237 18.2024 17.0699 18.7534 16.9319C19.3044 16.7939 19.8785 16.7748 20.4374 16.8759C20.9963 16.977 21.5273 17.196 21.995 17.5183C22.4627 17.8406 22.8564 18.2588 23.1499 18.7451L23.9999 20.1171L24.8499 18.7451C25.0091 18.4808 25.1983 18.2358 25.4139 18.0151C26.1764 17.2885 27.1892 16.8832 28.2424 16.8832C29.2957 16.8832 30.3085 17.2885 31.0709 18.0151C31.4424 18.3866 31.7371 18.8275 31.9381 19.3128C32.1391 19.7982 32.2426 20.3183 32.2426 20.8436C32.2426 21.3689 32.1391 21.8891 31.9381 22.3744C31.7371 22.8597 31.4424 23.3007 31.0709 23.6721V23.6711Z" fill="#8EDFEB"/>
<path d="M25 21H23V23H21V25H23V27H25V25H27V23H25V21Z" fill="#8EDFEB"/>
</svg>
