<svg width="48" height="48" viewBox="0 0 48 48" fill="none" xmlns="http://www.w3.org/2000/svg">
<rect opacity="0.05" width="48" height="48" rx="8" fill="#5364BE"/>
<path fill-rule="evenodd" clip-rule="evenodd" d="M33 18C34.1 18 35 18.9 35 20V28C35 29.1 34.1 30 33 30H15C13.9 30 13 29.1 13 28V20C13 18.9 13.9 18 15 18H33ZM33 28V20H15V28H33ZM18 27V25H16V23H18V21H20V23H22V25H20V27H18ZM26.5 27C25.6716 27 25 26.3284 25 25.5C25 24.6716 25.6716 24 26.5 24C27.3284 24 28 24.6716 28 25.5C28 26.3284 27.3284 27 26.5 27ZM30.5 24C29.6716 24 29 23.3284 29 22.5C29 21.6716 29.6716 21 30.5 21C31.3284 21 32 21.6716 32 22.5C32 23.3284 31.3284 24 30.5 24Z" fill="#8EDFEB"/>
</svg>
