<svg width="24" height="24" viewBox="0 0 24 24" fill="none" xmlns="http://www.w3.org/2000/svg">
<path d="M12 16.3333C11.4477 16.3333 11 15.8856 11 15.3333V13H8.66663C8.11434 13 7.66663 12.5523 7.66663 12C7.66663 11.4477 8.11434 11 8.66663 11H11V8.66667C11 8.11438 11.4477 7.66667 12 7.66667C12.5522 7.66667 13 8.11438 13 8.66667V11H15.3333C15.8856 11 16.3333 11.4477 16.3333 12C16.3333 12.5523 15.8856 13 15.3333 13H13V15.3333C13 15.8856 12.5522 16.3333 12 16.3333Z" fill="#5366BE"/>
<path fill-rule="evenodd" clip-rule="evenodd" d="M2 12C2 6.47715 6.47715 2 12 2C17.5228 2 22 6.47715 22 12C22 17.5228 17.5228 22 12 22C6.47715 22 2 17.5228 2 12ZM12 4C7.58172 4 4 7.58172 4 12C4 16.4183 7.58172 20 12 20C16.4183 20 20 16.4183 20 12C20 7.58172 16.4183 4 12 4Z" fill="#5366BE"/>
</svg>
