<svg width="48" height="48" viewBox="0 0 48 48" fill="none" xmlns="http://www.w3.org/2000/svg">
<rect opacity="0.05" width="48" height="48" rx="8" fill="#5364BE"/>
<path fill-rule="evenodd" clip-rule="evenodd" d="M20.5 28C19.6716 28 19 27.3284 19 26.5C19 25.6716 19.6716 25 20.5 25C21.3284 25 22 25.6716 22 26.5C22 27.3284 21.3284 28 20.5 28ZM27.5 28C26.6716 28 26 27.3284 26 26.5C26 25.6716 26.6716 25 27.5 25C28.3284 25 29 25.6716 29 26.5C29 27.3284 28.3284 28 27.5 28ZM24 14C28 14 32 14.5 32 18V27.5C32 29.43 30.43 31 28.5 31L30 32.5V33H28L26 31H22L20 33H18V32.5L19.5 31C17.57 31 16 29.43 16 27.5V18C16 14.5 20 14 24 14ZM24 16C20.49 16 19.04 16.48 18.43 17H29.57C28.96 16.48 27.51 16 24 16ZM18 19V22H23V19H18ZM30 27.5V24H18V27.5C18 28.33 18.67 29 19.5 29H28.5C29.33 29 30 28.33 30 27.5ZM30 22V19H25V22H30Z" fill="#8EDFEB"/>
</svg>
