<svg width="48" height="48" viewBox="0 0 48 48" fill="none" xmlns="http://www.w3.org/2000/svg">
<rect opacity="0.05" width="48" height="48" rx="8" fill="#5364BE"/>
<path fill-rule="evenodd" clip-rule="evenodd" d="M14.0601 22.06C14.5701 22.57 15.3801 22.62 15.9301 22.16C20.6001 18.32 27.3801 18.32 32.0601 22.15C32.6201 22.61 33.4401 22.57 33.9501 22.06C34.5401 21.47 34.5001 20.49 33.8501 19.96C28.1401 15.29 19.8801 15.29 14.1601 19.96C13.5101 20.48 13.4601 21.46 14.0601 22.06ZM21.8201 29.82L23.2901 31.29C23.6801 31.68 24.3101 31.68 24.7001 31.29L26.1701 29.82C26.6401 29.35 26.5401 28.54 25.9401 28.23C24.7201 27.6 23.2601 27.6 22.0301 28.23C21.4601 28.54 21.3501 29.35 21.8201 29.82ZM18.0901 26.09C18.5801 26.58 19.3501 26.63 19.9201 26.22C22.3601 24.49 25.6401 24.49 28.0801 26.22C28.6501 26.62 29.4201 26.58 29.9101 26.09L29.9201 26.08C30.5201 25.48 30.4801 24.46 29.7901 23.97C26.3501 21.48 21.6601 21.48 18.2101 23.97C17.5201 24.47 17.4801 25.48 18.0901 26.09Z" fill="#8EDFEB"/>
</svg>
